<svg width="350" height="280" viewBox="0 0 350 280" fill="none" xmlns="http://www.w3.org/2000/svg">
<g opacity="0.5">
<rect width="350" height="280" fill="white"/>
<path fill-rule="evenodd" clip-rule="evenodd" d="M289.801 91C295.213 91 299.601 95.3876 299.601 100.8C299.601 106.212 295.213 110.6 289.801 110.6H233.801C239.213 110.6 243.601 114.988 243.601 120.4C243.601 125.812 239.213 130.2 233.801 130.2H264.601C270.013 130.2 274.401 134.588 274.401 140C274.401 145.412 270.013 149.8 264.601 149.8H250.357C243.533 149.8 238.001 154.188 238.001 159.6C238.001 163.208 240.801 166.475 246.401 169.4C251.813 169.4 256.201 173.788 256.201 179.2C256.201 184.612 251.813 189 246.401 189H130.201C124.788 189 120.401 184.612 120.401 179.2C120.401 173.788 124.788 169.4 130.201 169.4H75.6008C70.1884 169.4 65.8008 165.012 65.8008 159.6C65.8008 154.188 70.1884 149.8 75.6008 149.8H131.601C137.013 149.8 141.401 145.412 141.401 140C141.401 134.588 137.013 130.2 131.601 130.2H96.6008C91.1884 130.2 86.8008 125.812 86.8008 120.4C86.8008 114.988 91.1884 110.6 96.6008 110.6H152.601C147.188 110.6 142.801 106.212 142.801 100.8C142.801 95.3876 147.188 91 152.601 91H289.801ZM289.801 130.2C295.213 130.2 299.601 134.588 299.601 140C299.601 145.412 295.213 149.8 289.801 149.8C284.388 149.8 280.001 145.412 280.001 140C280.001 134.588 284.388 130.2 289.801 130.2Z" fill="#FFECDB"/>
</g>
<g clip-path="url(#clip0_5058_46828)">
<path d="M145.996 88.3962C154.961 83.2095 165.139 80.4861 175.496 80.502C208.082 80.502 234.496 106.916 234.496 139.502C234.496 172.088 208.082 198.502 175.496 198.502C142.91 198.502 116.496 172.088 116.496 139.502C116.496 128.758 119.369 118.675 124.39 110.002" fill="white"/>
<path d="M145.996 88.3962C154.961 83.2095 165.139 80.4861 175.496 80.502C208.082 80.502 234.496 106.916 234.496 139.502C234.496 172.088 208.082 198.502 175.496 198.502C142.91 198.502 116.496 172.088 116.496 139.502C116.496 128.758 119.369 118.675 124.39 110.002" stroke="#EE7202" stroke-width="3.5" stroke-linecap="round"/>
<path fill-rule="evenodd" clip-rule="evenodd" d="M161.342 110.865C161.342 138.92 183.939 161.664 211.814 161.664C217.29 161.664 222.563 160.786 227.5 159.163C219.441 179.292 199.851 193.5 176.964 193.5C146.884 193.5 122.5 168.958 122.5 138.683C122.5 111.251 142.522 88.5245 168.66 84.5C164.017 92.1882 161.342 101.212 161.342 110.865Z" fill="#FFECDB"/>
<path d="M162.482 115.852C163.462 110.576 164.9 105.782 166.714 101.741C167.571 99.8265 168.504 98.1007 169.5 96.5818M173.037 92.3099C174 91 175.5 89.5195 177.5 89.5195" stroke="#FFA655" stroke-width="3.5" stroke-linecap="round"/>
<path d="M192.181 181.221C189.992 186.702 187.39 191.044 184.529 194.012C181.662 196.974 178.594 198.502 175.496 198.502C172.399 198.502 169.331 196.974 166.469 194.012C163.602 191.044 161 186.696 158.811 181.221C156.616 175.74 154.876 169.244 153.69 162.081C152.48 154.616 151.88 147.065 151.896 139.502C151.896 131.755 152.504 124.079 153.69 116.923C154.876 109.766 156.616 103.264 158.811 97.783C161 92.3019 163.602 87.9595 166.463 84.9918C169.331 82.036 172.399 80.502 175.496 80.502C178.594 80.502 181.662 82.0301 184.523 84.9918C187.39 87.9595 189.992 92.3078 192.181 97.783C194.376 103.264 196.117 109.76 197.297 116.923C198.482 124.079 199.096 131.755 199.096 139.502C199.096 147.249 198.482 154.925 197.297 162.081M116.496 139.502H163.696M234.496 139.502H187.296" stroke="#EE7202" stroke-width="3.5" stroke-linecap="round"/>
</g>
<path d="M268.192 115.888H256.746M277.046 105H253H277.046ZM286.846 105H283.736H286.846Z" stroke="#FFA655" stroke-width="3.5" stroke-linecap="round" stroke-linejoin="round"/>
<path d="M104.656 157.288H93.2097M98.1097 145H74.0636H98.1097ZM65.9097 145H60H65.9097Z" stroke="#FFA655" stroke-width="3.5" stroke-linecap="round" stroke-linejoin="round"/>
<defs>
<clipPath id="clip0_5058_46828">
<rect width="123" height="123" fill="white" transform="translate(114 78)"/>
</clipPath>
</defs>
</svg>
