<svg width="350" height="280" viewBox="0 0 350 280" fill="none" xmlns="http://www.w3.org/2000/svg">
<g opacity="0.5">
<rect width="350" height="280" fill="white"/>
<path fill-rule="evenodd" clip-rule="evenodd" d="M289.801 91C295.213 91 299.601 95.3876 299.601 100.8C299.601 106.212 295.213 110.6 289.801 110.6H233.801C239.213 110.6 243.601 114.988 243.601 120.4C243.601 125.812 239.213 130.2 233.801 130.2H264.601C270.013 130.2 274.401 134.588 274.401 140C274.401 145.412 270.013 149.8 264.601 149.8H250.357C243.533 149.8 238.001 154.188 238.001 159.6C238.001 163.208 240.801 166.475 246.401 169.4C251.813 169.4 256.201 173.788 256.201 179.2C256.201 184.612 251.813 189 246.401 189H130.201C124.788 189 120.401 184.612 120.401 179.2C120.401 173.788 124.788 169.4 130.201 169.4H75.6008C70.1884 169.4 65.8008 165.012 65.8008 159.6C65.8008 154.188 70.1884 149.8 75.6008 149.8H131.601C137.013 149.8 141.401 145.412 141.401 140C141.401 134.588 137.013 130.2 131.601 130.2H96.6008C91.1884 130.2 86.8008 125.812 86.8008 120.4C86.8008 114.988 91.1884 110.6 96.6008 110.6H152.601C147.188 110.6 142.801 106.212 142.801 100.8C142.801 95.3876 147.188 91 152.601 91H289.801ZM289.801 130.2C295.213 130.2 299.601 134.588 299.601 140C299.601 145.412 295.213 149.8 289.801 149.8C284.388 149.8 280.001 145.412 280.001 140C280.001 134.588 284.388 130.2 289.801 130.2Z" fill="#FFECDB"/>
</g>
<path fill-rule="evenodd" clip-rule="evenodd" d="M215.141 89.5996L228.164 184.579L229.334 194.108C229.711 197.178 227.528 199.972 224.458 200.349L142.474 210.415C139.404 210.792 136.61 208.609 136.233 205.54L123.611 102.741C123.422 101.206 124.514 99.8091 126.049 99.6207C126.058 99.6195 126.068 99.6183 126.078 99.6173L132.879 98.8543M138.378 98.2373L144.8 97.517L138.378 98.2373Z" fill="white"/>
<path d="M216.875 89.3619C216.744 88.4043 215.861 87.7345 214.903 87.8658C213.946 87.9971 213.276 88.8798 213.407 89.8373L216.875 89.3619ZM228.164 184.579L229.901 184.366C229.9 184.358 229.899 184.35 229.897 184.342L228.164 184.579ZM229.334 194.108L231.071 193.895L229.334 194.108ZM224.458 200.349L224.671 202.086L224.458 200.349ZM142.474 210.415L142.687 212.152L142.474 210.415ZM136.233 205.54L137.97 205.326L136.233 205.54ZM126.078 99.6173L126.273 101.356L126.078 99.6173ZM133.075 100.593C134.035 100.486 134.726 99.6197 134.619 98.6592C134.511 97.6987 133.645 97.0075 132.684 97.1152L133.075 100.593ZM138.183 96.4982C137.223 96.606 136.531 97.4719 136.639 98.4324C136.747 99.3929 137.613 100.084 138.573 99.9764L138.183 96.4982ZM144.995 99.2561C145.955 99.1483 146.647 98.2824 146.539 97.3219C146.431 96.3614 145.565 95.6701 144.605 95.7779L144.995 99.2561ZM213.407 89.8373L226.43 184.817L229.897 184.342L216.875 89.3619L213.407 89.8373ZM226.427 184.793L227.597 194.322L231.071 193.895L229.901 184.366L226.427 184.793ZM227.597 194.322C227.856 196.432 226.355 198.353 224.245 198.612L224.671 202.086C228.7 201.591 231.565 197.924 231.071 193.895L227.597 194.322ZM224.245 198.612L142.26 208.678L142.687 212.152L224.671 202.086L224.245 198.612ZM142.26 208.678C140.15 208.938 138.229 207.437 137.97 205.326L134.496 205.753C134.991 209.782 138.658 212.647 142.687 212.152L142.26 208.678ZM137.97 205.326L125.348 102.528L121.874 102.954L134.496 205.753L137.97 205.326ZM125.348 102.528C125.277 101.952 125.686 101.428 126.262 101.358L125.835 97.8837C123.341 98.19 121.568 100.46 121.874 102.954L125.348 102.528ZM126.262 101.358C126.266 101.357 126.269 101.357 126.273 101.356L125.883 97.8782C125.867 97.8799 125.851 97.8818 125.835 97.8837L126.262 101.358ZM126.273 101.356L133.075 100.593L132.684 97.1152L125.883 97.8782L126.273 101.356ZM138.573 99.9764L144.995 99.2561L144.605 95.7779L138.183 96.4982L138.573 99.9764Z" fill="#EE7202"/>
<path fill-rule="evenodd" clip-rule="evenodd" d="M211.598 95.5768L223.385 181.654L224.445 190.29C224.787 193.072 222.835 195.6 220.086 195.938L146.668 204.953C143.919 205.29 141.413 203.309 141.072 200.527L129.662 107.599C129.473 106.065 130.565 104.668 132.099 104.479L141.182 103.364" fill="#FFECDB"/>
<path d="M151.09 75.6C151.09 73.4737 152.814 71.75 154.94 71.75H218.719C219.74 71.75 220.719 72.1553 221.441 72.8768L240.261 91.6857C240.984 92.4078 241.39 93.3874 241.39 94.4089V182C241.39 184.126 239.666 185.85 237.54 185.85H154.94C152.814 185.85 151.09 184.126 151.09 182V75.6Z" fill="white" stroke="#EE7202" stroke-width="3.5"/>
<path d="M219.34 73.3643V89.6003C219.34 91.9199 221.22 93.8003 223.54 93.8003H234.647" stroke="#EE7202" stroke-width="3.5" stroke-linecap="round" stroke-linejoin="round"/>
<path d="M165.199 165.2H201.599M165.199 93.7998H201.599H165.199ZM165.199 110.6H225.399H165.199ZM165.199 128.8H225.399H165.199ZM165.199 147H225.399H165.199Z" stroke="#FFBE82" stroke-width="3.5" stroke-linecap="round" stroke-linejoin="round"/>
</svg>
