<svg width="350" height="280" viewBox="0 0 350 280" fill="none" xmlns="http://www.w3.org/2000/svg">
<g opacity="0.5">
<rect width="350" height="280" fill="white"/>
<path fill-rule="evenodd" clip-rule="evenodd" d="M289.801 91C295.213 91 299.601 95.3876 299.601 100.8C299.601 106.212 295.213 110.6 289.801 110.6H233.801C239.213 110.6 243.601 114.988 243.601 120.4C243.601 125.812 239.213 130.2 233.801 130.2H264.601C270.013 130.2 274.401 134.588 274.401 140C274.401 145.412 270.013 149.8 264.601 149.8H250.357C243.533 149.8 238.001 154.188 238.001 159.6C238.001 163.208 240.801 166.475 246.401 169.4C251.813 169.4 256.201 173.788 256.201 179.2C256.201 184.612 251.813 189 246.401 189H130.201C124.788 189 120.401 184.612 120.401 179.2C120.401 173.788 124.788 169.4 130.201 169.4H75.6008C70.1884 169.4 65.8008 165.012 65.8008 159.6C65.8008 154.188 70.1884 149.8 75.6008 149.8H131.601C137.013 149.8 141.401 145.412 141.401 140C141.401 134.588 137.013 130.2 131.601 130.2H96.6008C91.1884 130.2 86.8008 125.812 86.8008 120.4C86.8008 114.988 91.1884 110.6 96.6008 110.6H152.601C147.188 110.6 142.801 106.212 142.801 100.8C142.801 95.3876 147.188 91 152.601 91H289.801ZM289.801 130.2C295.213 130.2 299.601 134.588 299.601 140C299.601 145.412 295.213 149.8 289.801 149.8C284.388 149.8 280.001 145.412 280.001 140C280.001 134.588 284.388 130.2 289.801 130.2Z" fill="#FFECDB"/>
</g>
<path d="M268.192 115.888H256.746M277.046 105H253H277.046ZM286.846 105H283.736H286.846Z" stroke="#FFA655" stroke-width="3.5" stroke-linecap="round" stroke-linejoin="round"/>
<path d="M104.656 157.288H93.2097M98.1097 145H74.0636H98.1097ZM65.9097 145H60H65.9097Z" stroke="#FFA655" stroke-width="3.5" stroke-linecap="round" stroke-linejoin="round"/>
<path fill-rule="evenodd" clip-rule="evenodd" d="M130.451 115.862L175.726 89.9912L214.48 112.137C216.461 113.268 218.107 114.903 219.252 116.876C220.397 118.849 221 121.09 221 123.371V153.628C221 155.909 220.397 158.149 219.252 160.122C218.107 162.095 216.461 163.731 214.48 164.862L182.142 183.34C180.187 184.457 177.976 185.044 175.726 185.044C173.475 185.044 171.264 184.457 169.309 183.34L136.971 164.862C134.99 163.731 133.344 162.095 132.199 160.122C131.054 158.149 130.451 155.909 130.451 153.628V135.505" fill="white"/>
<path fill-rule="evenodd" clip-rule="evenodd" d="M130.421 115.842L175.737 141.737L156.316 148.211L111 122.316L130.421 115.842ZM175.737 89.9474L221.053 115.842L234 102.895L188.684 77L175.737 89.9474Z" fill="white"/>
<path d="M130.41 115.843L175.726 89.9482L214.516 112.114C216.499 113.247 218.147 114.883 219.293 116.858C220.439 118.833 221.042 121.076 221.042 123.359V153.643C221.042 155.926 220.439 158.169 219.293 160.144C218.147 162.118 216.499 163.755 214.516 164.888L182.148 183.383C180.192 184.5 177.978 185.088 175.726 185.088C173.473 185.088 171.26 184.5 169.304 183.383L136.936 164.888C134.953 163.755 133.305 162.118 132.159 160.144C131.013 158.169 130.41 155.926 130.41 153.643V135.504" stroke="#EE7202" stroke-width="3.5" stroke-linecap="round" stroke-linejoin="round"/>
<path fill-rule="evenodd" clip-rule="evenodd" d="M137.67 118.092C137.67 118.092 160.695 125.61 175.724 124.5C188.943 123.523 208.299 114.961 208.299 114.961C209.964 115.912 211.347 117.286 212.31 118.945C213.272 120.603 213.779 118.912 213.779 120.83L213.778 119.656C213.779 121.573 212.981 119.171 212.018 120.83C211.056 122.488 209.963 121.108 208.299 122.059L181.117 137.59C179.475 138.529 177.616 140.5 175.724 140.5C173.833 140.5 171.974 138.529 170.331 137.59L143.15 122.059C141.485 121.108 140.799 121.314 139.836 119.656C138.874 117.998 138.076 120.987 138.076 119.069L137.67 118.092Z" fill="#FFECDB"/>
<path fill-rule="evenodd" clip-rule="evenodd" d="M157.492 147.93L175.726 141.051L208.777 122.914C210.551 123.927 213.155 120.412 214.716 119.028C215.742 120.796 216.282 122.803 216.282 124.846V151.949C216.282 153.993 215.742 156 214.716 157.767C213.691 159.534 212.216 160.999 210.441 162.013L181.473 178.565C179.723 179.565 177.742 180.091 175.726 180.091C173.71 180.091 171.729 179.565 169.978 178.565L141.01 162.013C139.236 160.999 137.761 159.534 136.735 157.767C135.71 156 135.17 153.993 135.17 151.949V135.715" fill="#FFECDB"/>
<path d="M217.821 119.079L175.742 141.737V183.816" stroke="#EE7202" stroke-width="3.5" stroke-linecap="round" stroke-linejoin="round"/>
<path fill-rule="evenodd" clip-rule="evenodd" d="M130.421 115.842L175.737 141.737L156.316 148.211L111 122.316L130.421 115.842ZM175.737 89.9474L221.053 115.842L234 102.895L188.684 77L175.737 89.9474Z" stroke="#EE7202" stroke-width="3.5" stroke-linecap="round" stroke-linejoin="round"/>
<path d="M176 130L176 112" stroke="#FFA655" stroke-width="3.5" stroke-linecap="round"/>
<path d="M176 105.003V100" stroke="#FFA655" stroke-width="3.5" stroke-linecap="round"/>
</svg>
