<svg width="32" height="32" viewBox="0 0 32 32" fill="none" xmlns="http://www.w3.org/2000/svg">
    <circle cx="16" cy="16" r="15" fill="white" stroke="#E90B0B" stroke-width="2" />
    <path
        d="M12.3384 11.1614C12.0134 10.8364 11.4865 10.8364 11.1615 11.1614C10.8365 11.4864 10.8365 12.0133 11.1615 12.3383L15.0115 16.1883L11.1616 20.0382C10.8366 20.3632 10.8366 20.8901 11.1616 21.2151C11.4866 21.5401 12.0135 21.5401 12.3385 21.2151L16.1884 17.3652L20.0383 21.2151C20.3632 21.5401 20.8902 21.5401 21.2152 21.2151C21.5401 20.8901 21.5401 20.3632 21.2152 20.0382L17.3653 16.1883L21.2153 12.3383C21.5403 12.0133 21.5403 11.4864 21.2153 11.1614C20.8903 10.8364 20.3634 10.8364 20.0384 11.1614L16.1884 15.0114L12.3384 11.1614Z"
        fill="#E90B0B" />
    <path
        d="M21.2153 11.1614C21.5403 11.4864 21.5403 12.0133 21.2153 12.3383L17.3653 16.1883L21.2152 20.0382C21.5401 20.3632 21.5401 20.8901 21.2152 21.2151C20.8902 21.5401 20.3632 21.5401 20.0383 21.2151L16.1884 17.3652L12.3385 21.2151C12.0135 21.5401 11.4866 21.5401 11.1616 21.2151C10.8366 20.8901 10.8366 20.3632 11.1616 20.0382L15.0115 16.1883L11.1615 12.3383C10.8365 12.0133 10.8365 11.4864 11.1615 11.1614C11.4865 10.8364 12.0134 10.8364 12.3384 11.1614L16.1884 15.0114L20.0384 11.1614C20.3634 10.8364 20.8903 10.8364 21.2153 11.1614ZM21.2153 11.1614L21.0198 11.3569"
        stroke="#E90B0B" stroke-linecap="round" stroke-linejoin="round" />
</svg>