<?xml version="1.0" encoding="UTF-8"?>
<svg xmlns="http://www.w3.org/2000/sv
   g" id="logos" viewBox="0 0 60 60">
    <defs>
        <style> .cls-1 {
            fill: #fff; } </style>
    </defs>
    <g id="logo-xeno">
        <circle id="background" class="cls-1" cx="30" cy="30" r="30">
        </circle>
        <g id="Ebene_1-2" data-name="Ebene 1-2">
            <path
                d="m18.21,33.38l-2.47-3.9-2.4
   8,3.9h-1.69l3.42-5.07-2.85-4.08h1.76l1.82,3.04,1.75-3.04h1.67l-2.7,4.08,3.52
   ,5.07h-1.76Z"></path>
            <path
                d="m22.53,29.05v.22c0,.87.11,1.52.42,2.01.
   52.79,1.35,1.12,2.27,1.12.83.02,1.64-.29,2.24-.87l.55.92c-.85.75-1.95,1.16-3
   .08,1.14-2.52,0-4.06-1.84-4.06-4.86,0-1.54.33-2.53,1.1-3.45,1.28-1.51,3.55-1
   .7,5.06-.42.05.04.1.09.15.14.79.8,1.05,1.67,1.05,3.85v.19h-5.72v.02Zm3.76-3.
   13c-.38-.53-1-.84-1.66-.81-1.3,0-2.04.95-2.11,2.84h4.18c0-.98-.13-1.58-.42-2
   .03Z"></path>
            <path
                d="m36.25,33.38v-6.19c0-.98-.07-1.2-.33-1.52-.27-.
   26-.63-.4-1.01-.38-.73,0-1.87.58-2.52,1.29v6.81h-1.39v-7.05c0-1.15-.27-1.81-
   .35-1.92l1.39-.38c.21.45.32.94.34,1.44.95-.95,1.91-1.42,2.88-1.42.94-.02,1.8
   1.5,2.24,1.34.15.34.22.7.22,1.07v6.94h-1.46Z"></path>
            <path
                d="m44.5,3
   3.61c-2.51,0-3.95-1.86-3.95-4.87s1.49-4.78,3.9-4.78c1.25-.04,2.43.56,3.14,1.
   59.57.82.84,1.91.84,3.39,0,3.06-1.64,4.67-3.93,4.67Zm1.87-7.31c-.37-.73-1.12
   -1.19-1.94-1.17-.8,0-1.56.39-1.87.98s-.44,1.3-.44,2.39c0,1.29.22,2.43.57,2.9
   9s1.07.92,1.86.92c.89.04,1.7-.52,1.99-1.37.21-.64.3-1.32.27-1.99-.01-1.28-.1
   3-2.13-.43-2.75Z"></path>
            <polygon
                points="17.84 22.16 11.6 12.39 24.8
   5 12.39 30.02 21.39 35.4 12.39 48.46 12.39 42.06 22.16 42.26 22.16 48.78 12.
   22 35.32 12.22 30.02 21.05 24.95 12.22 11.29 12.22 17.64 22.16 17.84 22.16">
            </polygon>
            <polygon
                points="42.02 36.11 49.27 47.61 35.85 47.61 29.98
   37.04 24 47.61 10.73 47.61 18.09 36.11 17.89 36.11 10.43 47.78 24.1 47.78 29
   .98 37.37 35.72 47.73 35.75 47.78 49.57 47.78 42.22 36.11 42.02 36.11">
            </polygon>
        </g>
    </g>
</svg>